inDegrees=no
num_controls=7
num_derivatives=13
num_iterations=128
num_multipliers=7
num_parameters=0
num_slacks=7
num_states=26
objective=0.448405
objective_accelerations=0.049286
objective_balance=0.007463
objective_effort=0.036520
objective_height=0.350197
objective_ligament=0.004940
solver_duration=1853.971643
status=Solve_Succeeded
success=true
DataType=double
version=3
OpenSimVersion=4.5
endheader
time	/jointset/ground_pelvis/pelvis_tilt/value	/jointset/ground_pelvis/pelvis_tx/value	/jointset/ground_pelvis/pelvis_ty/value	/jointset/hip_l/hip_flexion_l/value	/jointset/hip_l/hip_adduction_l/value	/jointset/hip_l/hip_rotation_l/value	/jointset/back/lumbar_extension/value	/jointset/patellofemoral_l/patellar_flexion_l/value	/jointset/knee_l/knee_flexion_l/value	/jointset/knee_l/knee_adduction_l/value	/jointset/knee_l/knee_rotation_l/value	/jointset/ankle_l/ankle_angle_l/value	/jointset/subtalar_l/subtalar_angle_l/value	/jointset/ground_pelvis/pelvis_tilt/speed	/jointset/ground_pelvis/pelvis_tx/speed	/jointset/ground_pelvis/pelvis_ty/speed	/jointset/hip_l/hip_flexion_l/speed	/jointset/hip_l/hip_adduction_l/speed	/jointset/hip_l/hip_rotation_l/speed	/jointset/back/lumbar_extension/speed	/jointset/patellofemoral_l/patellar_flexion_l/speed	/jointset/knee_l/knee_flexion_l/speed	/jointset/knee_l/knee_adduction_l/speed	/jointset/knee_l/knee_rotation_l/speed	/jointset/ankle_l/ankle_angle_l/speed	/jointset/subtalar_l/subtalar_angle_l/speed	/forceset/tau_hip_flexion_l	/forceset/tau_hip_adduction_l	/forceset/tau_hip_rotation_l	/forceset/tau_knee_flexion_l	/forceset/tau_ankle_angle_l	/forceset/tau_subtalar_angle_l	/forceset/tau_lumbar_extension	lambda_cid13_p0	lambda_cid13_p1	lambda_cid13_p2	lambda_cid13_p3	lambda_cid13_p4	lambda_cid13_p5	lambda_cid14_p0	/jointset/ground_pelvis/pelvis_tilt/accel	/jointset/ground_pelvis/pelvis_tx/accel	/jointset/ground_pelvis/pelvis_ty/accel	/jointset/hip_l/hip_flexion_l/accel	/jointset/hip_l/hip_adduction_l/accel	/jointset/hip_l/hip_rotation_l/accel	/jointset/back/lumbar_extension/accel	/jointset/patellofemoral_l/patellar_flexion_l/accel	/jointset/knee_l/knee_flexion_l/accel	/jointset/knee_l/knee_adduction_l/accel	/jointset/knee_l/knee_rotation_l/accel	/jointset/ankle_l/ankle_angle_l/accel	/jointset/subtalar_l/subtalar_angle_l/accel	gamma_cid13_p0	gamma_cid13_p1	gamma_cid13_p2	gamma_cid13_p3	gamma_cid13_p4	gamma_cid13_p5	gamma_cid14_p0
0.5	-0.4445050736601727	-0.0737986987396725	0.7646251014883634	1.257759553448452	-0.3097685944556189	-0.04874125997563666	-0.3282792800447384	0.6820738838160189	0.6820738838160508	-0.1732802324058354	0.174438659708005	0.03436032061512816	-0.0495487258262602	-0.7393981622668441	-0.2721593597667535	-0.492816320493313	2.367193101051586	-0.03552636379039643	0.6142263095486549	-0.623537294045804	1.764953435693894	1.764953435694071	-0.005885519541008109	0.001535201072483956	0.230294244366465	-0.01089139935487041	-0.2426273412897637	0.0145708754056479	-0.0214740473760591	-0.2034397707042725	0.1432266001965342	0.04450512222915679	0.2184664909529081	7.273041376990522	-23.35928167468066	6.47113237010177	-5.311410570058011	-606.6786697391299	-61.53430755159595	-28.70225744267958	0.605463826530613	0.6870238935278555	-0.3257732804907507	-1.472068852741343	0.5922476132805168	-0.2731639084128452	1.726850820277829	-1.063655329120024	-1.063655329120024	0.0209399773974147	-0.03404074267367188	-0.133236629798607	0.5698897833513107	-2.559274429648624e-07	-8.248648323985051e-07	1.274303448748399e-06	5.423177563955041e-08	-3.501712892868878e-07	3.182551332720513e-08	-2.97352612528428e-07
0.51	-0.4518671663359539	-0.07648564258294809	0.7596816856543792	1.281353669360478	-0.3100957242814719	-0.04261281106553466	-0.3344283488322286	0.6996673700786712	0.6996673700787243	-0.1733409674920444	0.1744528027044717	0.03665560184658375	-0.04963076681327787	-0.7329244339090906	-0.2652079557611008	-0.4957670431506295	2.351325118362069	-0.02990757818198084	0.6113608664127961	-0.6062102549748009	1.753511050421308	1.753511050421284	-0.006234869277692169	0.001312699667857903	0.2287133512897994	-0.005525941496764107	-0.2507937990816221	0.01522279503378018	-0.02157001733434734	-0.2045895667660684	0.1429369907037835	0.04507804155629136	0.2247745561542525	6.937686474929598	-23.44366660546188	6.363832444310772	-5.211950947809756	-611.1389507054786	-61.13866637134245	-27.68297852255874	0.6826788360038628	0.7024395021686516	-0.2648286535743633	-1.689955597996852	0.5453810592899312	-0.3089226887691777	1.745561722127416	-1.21937940613349	-1.219379406163683	-0.05892429945117001	-0.01379798024635922	-0.177814090350564	0.5184318779514949	-3.126848691416509e-07	-6.620346131267891e-07	1.546632544846753e-06	1.184001531404139e-07	-3.772778621498235e-07	8.70488782388399e-08	-3.221660313171628e-07
0.52	-0.4591616514290366	-0.07910242421655024	0.7547117412147775	1.304779946921422	-0.3103669288463074	-0.03651615422131083	-0.3404021609746855	0.7171394626326367	0.7171394626327084	-0.1734044064456705	0.1744652320587133	0.03893361445852259	-0.04965944160353223	-0.7258766457270907	-0.2581269178320623	-0.4981220416168364	2.333625430834951	-0.02434131158685082	0.6078678963730657	-0.5884859650391632	1.740674693956498	1.740674693956272	-0.006426293024370174	0.001192472627660211	0.2268405204631326	-0.0002181600022094246	-0.2589602568734804	0.01587471466191158	-0.0216659872926407	-0.205739362827864	0.1426473812110324	0.04565096088342487	0.2310826213555974	6.598132792795923	-23.53103803041173	6.261260517903654	-5.127382017304619	-615.6836113187741	-60.822006621194	-26.65829083889145	0.7202757913799214	0.7129506782050458	-0.2066284422688265	-1.838409820261669	0.5817438106234027	-0.3986692891871865	1.806300993204722	-1.342449567564874	-1.342449567564877	0.05252517539862785	-0.01358586978800426	-0.1916241797988664	0.5583545106409857	-3.050483321964455e-07	-5.81204204617259e-07	1.521420008816359e-06	1.264920955286072e-07	-3.5795690243192e-07	1.203278290122028e-07	-3.095457690141432e-07
0.53	-0.4663829293309599	-0.08164780142541539	0.7497212568453476	1.328020265146547	-0.3105827407066455	-0.03045709068810096	-0.3461967867113597	0.7344762543108052	0.7344762543108654	-0.1734691194189354	0.1744765946938756	0.0411915002519657	-0.04963532925428162	-0.7182887404575715	-0.2509313298991624	-0.4998709122841025	2.314135850907796	-0.01884160286252792	0.6038724805578417	-0.5703851699136718	1.726448879409893	1.726448879409802	-0.00652034475730022	0.001079105042750504	0.2246898023642752	0.005018730544273226	-0.2669457111228623	0.01621134761137768	-0.02174928252176881	-0.2071284557062535	0.1426391160328407	0.04608704694372281	0.2372209151808669	6.342815496230282	-23.57603100280153	6.154557563989411	-5.0702505080825	-620.2560121318336	-60.47475038401276	-25.63372264467888	0.7915403619281726	0.7254681055704746	-0.1434979429090666	-2.049631369133555	0.5308703677286037	-0.4110961879711154	1.820070629526989	-1.497801154917335	-1.497801154897028	-0.04100279482995244	-0.01067728865967353	-0.2338187316036523	0.5029811175624835	-2.821026113362205e-07	-5.262966048840323e-07	1.422051201413547e-06	1.181219580790853e-07	-3.27065542458109e-07	1.405978959786962e-07	-2.884646531813346e-07
